<svg width="1285" height="343" viewBox="0 0 1285 343" fill="none" xmlns="http://www.w3.org/2000/svg">
<path fill-rule="evenodd" clip-rule="evenodd" d="M393.21 96.7576L487.108 203.862C487.84 203.154 488.269 201.369 488.944 201.035C489.459 199.436 490.868 197.011 491.671 195.52C492.788 193.437 493.311 192.272 495.618 191.599C497.722 190.986 500.073 191.863 501.607 192.833C504.281 194.526 503.316 194.561 504.741 197.233C507.283 196.452 509.112 196.67 511.353 197.888C513.345 198.97 514.013 200.052 514.847 202.503C517.428 201.569 519.161 201.828 521.5 203.165C524.849 205.076 524.33 206.512 525.208 207.71C525.769 207.53 526.389 207.279 527.105 207.238C528.37 207.163 528.741 207.46 529.131 207.708C531.052 207.534 533.915 209.863 534.593 211.486C535.765 214.3 533.83 216.523 533.106 218.707C534.164 219.217 536.004 220.486 537.148 221.218C538.621 222.166 539.492 222.766 540.971 223.689C544.274 225.756 547.473 223.366 547.878 219.892C548.23 216.862 545.182 215.743 541.493 213.41C539.149 211.928 533.766 209.331 534.841 207.844C535.771 206.558 538.366 208.737 540.226 209.949C542.132 211.193 549.191 216.024 551.029 215.974C553.312 215.912 554.758 213.959 555.225 211.846C555.902 208.779 553.925 208.047 552.085 206.905L542.099 200.522C540.798 199.706 537.181 198.257 538.46 196.648C539.608 195.828 540.846 197.052 541.996 197.793C543.164 198.548 544.092 199.152 545.255 199.884C547.843 201.512 556.163 207.935 558.927 207.042C560.821 206.431 563.288 203.042 561.966 200.498C561.46 199.531 537.568 184.51 536.231 184.059C534.01 186.674 531.752 193.714 529.214 195.599C524.383 199.185 518.954 196.819 516.955 192.914C514.475 188.07 518.253 183.314 520.282 179.424L526.292 167.524C518.574 167.055 509.147 167.425 501.275 167.486C498.109 167.511 498.557 167.486 496.165 166.163L393.21 55.1176V96.7576Z" fill="#003B8D"/>
<path fill-rule="evenodd" clip-rule="evenodd" d="M651.467 105.909V66.1185L552.392 165.243C548.437 167.414 549.028 167.473 543.786 167.484C540.318 167.493 536.849 167.48 533.381 167.487C529.115 167.496 528.348 168.333 526.819 171.469C524.579 176.065 522.074 180.942 519.7 185.458C518.299 188.128 517.237 190.854 519.579 193.128C521.259 194.759 524.948 195.991 527.55 194.254C529.412 193.011 530.516 190.373 531.655 187.958C532.68 185.784 534.542 182.929 535.23 180.829C537.029 181.476 548.058 188.8 550.629 190.414C553.336 192.11 555.666 193.579 558.362 195.281C562.643 197.981 561.614 198.513 566.525 196.059L651.467 105.909Z" fill="#003B8D"/>
<path fill-rule="evenodd" clip-rule="evenodd" d="M490.424 202.205C489.979 205.818 484.673 209.216 489.02 212.664C491.434 214.578 494.313 214.631 496.177 211.053L497.128 209.244C497.861 208.161 496.965 209.176 497.424 208.907C498.559 205.165 504.651 198.73 500.652 195.683C493.71 190.395 493.363 199.79 490.424 202.205Z" fill="#003B8D"/>
<path fill-rule="evenodd" clip-rule="evenodd" d="M520.059 219.003C519.819 221.868 514.904 225.159 519.275 228.378C520.447 229.241 522.473 230.015 524.134 229.258C526.264 228.287 530.289 219.059 531.506 216.777C533.54 212.966 530.847 210.159 526.785 209.971C524.161 210.716 524.114 211.631 522.951 213.888C522.257 215.236 521.235 218 520.059 219.003Z" fill="#003B8D"/>
<path fill-rule="evenodd" clip-rule="evenodd" d="M499.856 209.131C499.13 211.522 496.413 214.032 497.946 216.643C498.906 218.278 502.628 220.36 504.973 218.268C506.306 217.079 510.104 208.459 511.621 206.103C512.327 205.007 511.488 206.032 511.912 205.758C512.654 202.947 511.999 201.654 510.232 200.577C508.652 199.614 506.486 199.109 504.924 200.27C503.515 201.318 501.071 207.704 499.856 209.131Z" fill="#003B8D"/>
<path fill-rule="evenodd" clip-rule="evenodd" d="M513.744 206.38C513.408 209.218 507.471 217.238 507.347 219.967C507.233 222.476 510.109 224.642 512.903 224.35C515.49 224.079 516.402 221.098 517.565 218.827C518.389 217.253 522.106 210.564 522.161 209.215C522.244 207.149 520.591 205.888 519.09 205.263C516.586 204.22 515.037 205.432 513.744 206.38Z" fill="#003B8D"/>
<path fill-rule="evenodd" clip-rule="evenodd" d="M527.905 228.899C531.059 230.135 535.571 235.672 538.482 229.42C539.847 226.488 538.964 225.133 536.972 223.914C535.437 222.974 533.294 221.376 531.794 220.839C530.956 223.515 528.596 226.199 527.905 228.899Z" fill="#003B8D"/>
<path fill-rule="evenodd" clip-rule="evenodd" d="M420.152 271.461H330.841L396.102 27.9862L462.051 115.149L420.152 271.461Z" fill="#003B8D"/>
<path fill-rule="evenodd" clip-rule="evenodd" d="M623.698 271.461H713.009L647.749 27.9862L581.8 115.149L623.698 271.461Z" fill="#003B8D"/>
<path fill-rule="evenodd" clip-rule="evenodd" d="M420.543 1.21071C422.776 0.0860345 425.375 -0.259788 428.189 0.192973C431.004 0.645734 433.98 1.88823 436.947 3.84951C439.915 5.81078 442.815 8.45244 445.484 11.6236C448.152 14.7948 450.536 18.4335 452.499 22.3318C455.455 28.203 457.348 34.4446 457.937 40.2674C458.527 46.0902 457.786 51.2325 455.81 55.0443C453.834 58.856 450.71 61.1658 446.834 61.6817C442.958 62.1976 438.504 60.8964 434.035 57.9425C429.566 54.9887 425.283 50.5149 421.727 45.087C418.171 39.6591 415.502 33.5208 414.058 27.4483C412.614 21.3758 412.459 15.6419 413.613 10.9717C414.768 6.30141 417.179 2.90457 420.543 1.21071Z" fill="#003B8D"/>
<path fill-rule="evenodd" clip-rule="evenodd" d="M624.593 1.21071C622.36 0.0860345 619.761 -0.259788 616.947 0.192973C614.132 0.645734 611.156 1.88823 608.189 3.84951C605.221 5.81078 602.321 8.45244 599.652 11.6236C596.984 14.7948 594.6 18.4335 592.637 22.3318C589.681 28.203 587.788 34.4446 587.199 40.2674C586.609 46.0902 587.35 51.2325 589.326 55.0443C591.302 58.856 594.426 61.1658 598.302 61.6817C602.178 62.1976 606.632 60.8964 611.101 57.9425C615.57 54.9887 619.853 50.5149 623.409 45.087C626.965 39.6591 629.634 33.5208 631.078 27.4483C632.522 21.3758 632.677 15.6419 631.523 10.9717C630.368 6.30141 627.957 2.90457 624.593 1.21071Z" fill="#003B8D"/>
<path fill-rule="evenodd" clip-rule="evenodd" d="M878.719 271.688H854.326L835.013 220.032H762.791L745.753 271.688H721.36L785.185 100.937H810.774L878.719 271.688ZM827.834 200.9L798.592 120.786H798.114L769.482 200.9H827.834ZM1005.54 120.069H948.628L950.563 271.688H927.844L925.909 120.069H868.992L868.748 100.937H1005.3L1005.54 120.069ZM1137.92 271.688H1019.06L1016.88 100.937H1134.78L1135.02 120.069H1039.84L1040.54 174.355H1129.5L1129.74 193.486H1040.78L1041.53 252.556H1137.67L1137.92 271.688ZM1284.97 225.054C1285.16 239.721 1279.42 251.759 1267.74 261.165C1255.27 271.05 1238.43 275.992 1217.23 275.992C1194.11 275.992 1176.33 269.774 1163.9 257.339C1153.08 246.497 1147.56 232.547 1147.34 215.488H1169.34C1169.52 229.199 1174.2 239.642 1183.38 246.816C1191.91 253.513 1203.59 256.86 1218.42 256.86C1247.28 256.86 1261.58 247.056 1261.33 227.446C1261.19 216.285 1255.82 207.995 1245.23 202.574C1240.09 200.023 1228.09 196.436 1209.22 191.812C1186.99 186.551 1172.82 181.848 1166.71 177.703C1157.06 171.485 1152.15 160.883 1151.96 145.897C1151.76 130.75 1157.43 118.634 1168.95 109.546C1180 100.937 1194.21 96.6323 1211.59 96.6323C1252.88 96.6323 1274.64 114.887 1276.86 151.397H1254.86C1252.96 127.641 1238.66 115.764 1211.96 115.764C1200.75 115.764 1191.9 117.996 1185.42 122.46C1178.1 127.243 1174.53 134.258 1174.64 143.505C1174.77 153.549 1178.93 160.564 1187.15 164.55C1190.84 166.304 1203.12 169.572 1223.94 174.355C1243.97 178.978 1258.19 184.08 1266.55 189.66C1278.65 197.632 1284.77 209.43 1284.97 225.054Z" fill="#008BD0"/>
<path fill-rule="evenodd" clip-rule="evenodd" d="M112.404 120.069H22.9629L23.6557 174.355H102.813L103.058 193.486H23.8999L24.898 271.688H2.17933L0 100.937H112.16L112.404 120.069ZM156.29 271.688H133.571L131.392 100.937H154.111L156.29 271.688ZM322.359 271.688H297.128L206.291 134.178L208.046 271.688H186.523L184.344 100.937H208.498L299.7 238.924H300.417L298.656 100.937H320.179L322.359 271.688Z" fill="#008BD0"/>
<path fill-rule="evenodd" clip-rule="evenodd" d="M372.429 332.824H367.581V298.452L358.768 332.824H353.921L345.107 298.286V332.824H340.26V293.494H348.375L356.363 324.782H356.399L364.414 293.494H372.429V332.824ZM399.661 332.989C399.513 332.989 399.1 333.026 398.421 333.099C397.742 333.172 397.2 333.209 396.796 333.209C394.299 333.209 392.977 332.126 392.83 329.969L392.775 329.243H392.72C392.206 330.345 391.288 331.318 389.966 332.163C388.534 333.117 387.028 333.595 385.449 333.595C380.161 333.595 377.517 330.731 377.517 325.002C377.517 322.284 378.196 320.246 379.555 318.887C380.657 317.786 382.493 316.905 385.063 316.244C387.891 315.509 389.892 314.866 391.067 314.316C392.132 313.838 392.665 312.847 392.665 311.341C392.665 309.542 392.307 308.229 391.591 307.403C390.875 306.576 389.672 306.163 387.983 306.163C384.567 306.163 382.86 308.183 382.86 312.222H378.233C378.233 305.759 381.41 302.528 387.763 302.528C391.141 302.528 393.546 303.161 394.978 304.437C396.411 305.704 397.127 307.852 397.127 310.882V328.077C397.127 329.335 397.622 329.959 398.614 329.959C398.871 329.959 399.22 329.868 399.661 329.684V332.989ZM392.499 324.561V316.739C391.985 317.29 391.132 317.768 389.938 318.172C388.745 318.575 387.579 318.979 386.441 319.383C385.008 319.934 383.998 320.577 383.411 321.311C382.713 322.156 382.364 323.368 382.364 324.947C382.364 328.289 383.723 329.959 386.441 329.959C387.983 329.959 389.378 329.427 390.627 328.362C391.875 327.297 392.499 326.03 392.499 324.561ZM423.037 332.824H418.409V311.947C418.409 308.312 416.959 306.494 414.058 306.494C412.625 306.494 411.34 306.953 410.202 307.871C408.88 308.936 408.219 310.331 408.219 312.057V332.824H403.592V303.299H407.999V306.88C408.55 305.667 409.44 304.658 410.652 303.85C412.02 302.969 413.562 302.528 415.297 302.528C420.457 302.528 423.037 305.3 423.037 310.845V332.824ZM449.993 332.989C449.846 332.989 449.433 333.026 448.754 333.099C448.074 333.172 447.533 333.209 447.129 333.209C444.632 333.209 443.309 332.126 443.163 329.969L443.108 329.243H443.053C442.539 330.345 441.62 331.318 440.298 332.163C438.866 333.117 437.361 333.595 435.781 333.595C430.493 333.595 427.85 330.731 427.85 325.002C427.85 322.284 428.529 320.246 429.888 318.887C430.989 317.786 432.825 316.905 435.396 316.244C438.224 315.509 440.225 314.866 441.4 314.316C442.465 313.838 442.998 312.847 442.998 311.341C442.998 309.542 442.639 308.229 441.924 307.403C441.207 306.576 440.005 306.163 438.315 306.163C434.9 306.163 433.193 308.183 433.193 312.222H428.566C428.566 305.759 431.742 302.528 438.095 302.528C441.473 302.528 443.879 303.161 445.311 304.437C446.743 305.704 447.459 307.852 447.459 310.882V328.077C447.459 329.335 447.955 329.959 448.947 329.959C449.204 329.959 449.553 329.868 449.993 329.684V332.989ZM442.832 324.561V316.739C442.318 317.29 441.464 317.768 440.271 318.172C439.078 318.575 437.912 318.979 436.773 319.383C435.341 319.934 434.331 320.577 433.743 321.311C433.046 322.156 432.697 323.368 432.697 324.947C432.697 328.289 434.056 329.959 436.773 329.959C438.315 329.959 439.711 329.427 440.959 328.362C442.208 327.297 442.832 326.03 442.832 324.561ZM473.424 329.518C473.424 334.917 472.377 338.644 470.284 340.701C468.742 342.206 466.355 342.959 463.124 342.959C460.112 342.959 457.744 342.17 456.018 340.591C454.475 339.232 453.704 337.561 453.704 335.578H458.331C458.331 336.716 458.772 337.625 459.653 338.304C460.535 338.984 461.691 339.324 463.124 339.324C464.886 339.324 466.171 338.993 466.98 338.332C468.191 337.341 468.797 335.523 468.797 332.879V328.803C468.724 328.766 468.687 328.766 468.687 328.803C467.585 331.447 465.253 332.768 461.691 332.768C458.68 332.768 456.422 331.336 454.916 328.472C453.557 325.902 452.878 322.321 452.878 317.731C452.878 313.141 453.631 309.505 455.145 306.824C456.798 303.96 459.157 302.528 462.215 302.528C465.465 302.528 467.732 304.052 469.017 307.099V303.299H473.424V329.518ZM469.017 317.648C469.017 310.212 467.062 306.494 463.151 306.494C459.534 306.494 457.725 310.212 457.725 317.648C457.725 325.084 459.479 328.803 462.986 328.803C465.18 328.803 466.732 327.885 467.65 326.058C468.559 324.331 469.017 321.532 469.017 317.648ZM499.004 318.612H483.47C483.47 322.725 483.911 325.644 484.793 327.371C485.673 329.096 487.087 329.959 489.034 329.959C490.723 329.959 491.999 329.335 492.862 328.087C493.725 326.838 494.157 325.185 494.157 323.129H498.783C498.783 325.92 497.975 328.289 496.36 330.235C494.487 332.475 491.953 333.595 488.758 333.595C485.307 333.595 482.754 332.383 481.102 329.959C479.449 327.536 478.623 323.551 478.623 318.006C478.623 307.687 482.148 302.528 489.199 302.528C492.835 302.528 495.414 303.786 496.938 306.301C498.462 308.816 499.151 312.92 499.004 318.612ZM494.157 314.977C494.157 311.672 493.697 309.321 492.779 307.926C491.972 306.751 490.741 306.163 489.089 306.163C485.453 306.163 483.636 309.101 483.636 314.977H494.157ZM541.835 332.824H536.813L533.967 322.027H521.399L518.461 332.824H513.412L524.759 293.494H531.259L541.835 332.824ZM533.012 318.061L527.972 299.104L527.844 299.113L522.372 318.062L533.012 318.061ZM563.283 322.578C563.283 326.471 562.163 329.39 559.923 331.337C558.197 332.842 556.122 333.595 553.699 333.595C550.54 333.595 548.172 332.714 546.593 330.951C544.426 328.527 543.343 324.249 543.343 318.116C543.343 307.724 546.85 302.528 553.864 302.528C556.361 302.528 558.436 303.17 560.088 304.456C562.218 306.145 563.283 308.752 563.283 312.277H558.656C558.656 308.201 557.096 306.163 553.974 306.163C552.211 306.163 550.871 306.88 549.953 308.312C548.778 310.221 548.19 313.563 548.19 318.337C548.19 326.085 550.045 329.959 553.754 329.959C557.022 329.959 558.656 327.499 558.656 322.578H563.283ZM586.935 322.578C586.935 326.471 585.815 329.39 583.575 331.337C581.849 332.842 579.774 333.595 577.35 333.595C574.192 333.595 571.823 332.714 570.245 330.951C568.078 328.527 566.995 324.249 566.995 318.116C566.995 307.724 570.502 302.528 577.515 302.528C580.012 302.528 582.087 303.17 583.74 304.456C585.87 306.145 586.935 308.752 586.935 312.277H582.308C582.308 308.201 580.747 306.163 577.626 306.163C575.863 306.163 574.523 306.88 573.605 308.312C572.429 310.221 571.842 313.563 571.842 318.337C571.842 326.085 573.696 329.959 577.405 329.959C580.673 329.959 582.308 327.499 582.308 322.578H586.935ZM611.743 318.392C611.743 328.527 608.163 333.595 601.002 333.595C593.988 333.595 590.481 328.527 590.481 318.392C590.481 307.816 593.988 302.528 601.002 302.528C608.163 302.528 611.743 307.816 611.743 318.392ZM606.896 318.392C606.896 313.912 606.4 310.717 605.409 308.807C604.491 307.045 603.021 306.163 601.002 306.163C599.129 306.163 597.752 307.008 596.871 308.697C595.842 310.644 595.328 313.875 595.328 318.392C595.328 326.103 597.22 329.959 601.002 329.959C604.931 329.959 606.896 326.103 606.896 318.392ZM636 332.824H631.593V329.299C631.227 330.29 630.446 331.208 629.262 332.053C627.82 333.081 626.214 333.595 624.433 333.595C619.181 333.595 616.556 330.823 616.556 325.277V303.299H621.183V323.79C621.183 327.682 622.633 329.629 625.535 329.629C627.003 329.629 628.307 329.152 629.445 328.197C630.731 327.132 631.373 325.754 631.373 324.065V303.299H636V332.824ZM661.69 332.824H657.063V311.947C657.063 308.312 655.613 306.494 652.712 306.494C651.279 306.494 649.994 306.953 648.856 307.871C647.534 308.936 646.873 310.331 646.873 312.057V332.824H642.246V303.299H646.652V306.88C647.203 305.667 648.094 304.658 649.305 303.85C650.673 302.969 652.216 302.528 653.951 302.528C659.11 302.528 661.69 305.3 661.69 310.845V332.824ZM679.007 332.879C677.612 333.099 676.547 333.209 675.812 333.209C673.425 333.209 671.791 332.86 670.91 332.163C669.845 331.355 669.312 329.803 669.312 327.526V306.934H665.016V303.299H669.312V294.706H673.94V303.299H679.007V306.934H673.94V326.205C673.94 327.536 674.233 328.399 674.821 328.803C675.261 329.096 676.125 329.243 677.41 329.243C677.814 329.243 678.346 329.17 679.007 329.023V332.879ZM700.4 324.616C700.4 327.591 699.445 329.886 697.536 331.502C695.847 332.897 693.68 333.595 691.036 333.595C684.169 333.595 680.736 330.106 680.736 323.129H685.363C685.363 327.682 687.162 329.959 690.761 329.959C692.12 329.959 693.239 329.61 694.121 328.913C695.223 328.031 695.773 326.746 695.773 325.057C695.773 323.294 695.039 321.954 693.57 321.036C692.799 320.522 690.926 319.787 687.951 318.833C685.748 318.135 684.151 317.254 683.159 316.188C681.911 314.866 681.286 313.067 681.286 310.79C681.286 308.293 682.122 306.292 683.793 304.786C685.464 303.281 687.731 302.528 690.595 302.528C693.717 302.528 696.012 303.271 697.481 304.758C698.95 306.246 699.684 308.642 699.684 311.947H695.057C695.057 309.707 694.653 308.146 693.845 307.265C693.184 306.53 692.12 306.163 690.651 306.163C687.492 306.163 685.913 307.632 685.913 310.57C685.913 311.965 686.428 313.03 687.456 313.765C688.153 314.242 689.567 314.83 691.697 315.527C694.708 316.519 696.599 317.29 697.371 317.841C699.391 319.273 700.4 321.532 700.4 324.616ZM739.706 297.791H729.791V332.824H724.944V297.791H715.029V293.494H739.706V297.791ZM764.019 332.989C763.872 332.989 763.459 333.026 762.78 333.099C762.1 333.172 761.559 333.209 761.155 333.209C758.657 333.209 757.335 332.126 757.189 329.969L757.133 329.243H757.078C756.564 330.345 755.646 331.318 754.324 332.163C752.892 333.117 751.386 333.595 749.807 333.595C744.519 333.595 741.876 330.731 741.876 325.002C741.876 322.284 742.555 320.246 743.914 318.887C745.015 317.786 746.851 316.905 749.422 316.244C752.25 315.509 754.251 314.866 755.426 314.316C756.491 313.838 757.023 312.847 757.023 311.341C757.023 309.542 756.665 308.229 755.949 307.403C755.233 306.576 754.031 306.163 752.341 306.163C748.926 306.163 747.218 308.183 747.218 312.222H742.591C742.591 305.759 745.768 302.528 752.121 302.528C755.499 302.528 757.905 303.161 759.337 304.437C760.769 305.704 761.485 307.852 761.485 310.882V328.077C761.485 329.335 761.981 329.959 762.973 329.959C763.229 329.959 763.578 329.868 764.019 329.684V332.989ZM756.858 324.561V316.739C756.344 317.29 755.49 317.768 754.297 318.172C753.104 318.575 751.937 318.979 750.799 319.383C749.367 319.934 748.357 320.577 747.769 321.311C747.072 322.156 746.723 323.368 746.723 324.947C746.723 328.289 748.082 329.959 750.799 329.959C752.341 329.959 753.737 329.427 754.985 328.362C756.234 327.297 756.858 326.03 756.858 324.561ZM786.954 332.824H781.859L775.965 321.164L770.301 332.824H765.251L773.349 317.511L765.802 303.299H770.879L776.222 313.903L781.602 303.299H786.679L778.967 317.511L786.954 332.824ZM811.212 332.989C811.065 332.989 810.652 333.026 809.972 333.099C809.293 333.172 808.751 333.209 808.347 333.209C805.85 333.209 804.528 332.126 804.381 329.969L804.326 329.243H804.271C803.757 330.345 802.839 331.318 801.517 332.163C800.085 333.117 798.579 333.595 797 333.595C791.712 333.595 789.068 330.731 789.068 325.002C789.068 322.284 789.747 320.246 791.106 318.887C792.208 317.786 794.044 316.905 796.614 316.244C799.442 315.509 801.444 314.866 802.619 314.316C803.684 313.838 804.216 312.847 804.216 311.341C804.216 309.542 803.858 308.229 803.142 307.403C802.426 306.576 801.223 306.163 799.534 306.163C796.119 306.163 794.411 308.183 794.411 312.222H789.784C789.784 305.759 792.961 302.528 799.314 302.528C802.692 302.528 805.097 303.161 806.53 304.437C807.962 305.704 808.678 307.852 808.678 310.882V328.077C808.678 329.335 809.173 329.959 810.165 329.959C810.422 329.959 810.771 329.868 811.212 329.684V332.989ZM804.051 324.561V316.739C803.537 317.29 802.683 317.768 801.489 318.172C800.296 318.575 799.13 318.979 797.992 319.383C796.559 319.934 795.549 320.577 794.962 321.311C794.264 322.156 793.915 323.368 793.915 324.947C793.915 328.289 795.274 329.959 797.992 329.959C799.534 329.959 800.93 329.427 802.178 328.362C803.427 327.297 804.051 326.03 804.051 324.561ZM826.215 332.879C824.82 333.099 823.755 333.209 823.02 333.209C820.633 333.209 818.999 332.86 818.118 332.163C817.053 331.355 816.52 329.803 816.52 327.526V306.934H812.223V303.299H816.52V294.706H821.147V303.299H826.215V306.934H821.147V326.205C821.147 327.536 821.441 328.399 822.029 328.803C822.469 329.096 823.332 329.243 824.617 329.243C825.021 329.243 825.554 329.17 826.215 329.023V332.879ZM834.553 298.782H829.926V293.494H834.553V298.782ZM834.553 332.824H829.926V303.299H834.553V332.824ZM860.849 318.392C860.849 328.527 857.268 333.595 850.107 333.595C843.093 333.595 839.587 328.527 839.587 318.392C839.587 307.816 843.093 302.528 850.107 302.528C857.268 302.528 860.849 307.816 860.849 318.392ZM856.001 318.392C856.001 313.912 855.506 310.717 854.514 308.807C853.596 307.045 852.127 306.163 850.107 306.163C848.235 306.163 846.857 307.008 845.976 308.697C844.948 310.644 844.434 313.875 844.434 318.392C844.434 326.103 846.325 329.959 850.107 329.959C854.037 329.959 856.001 326.103 856.001 318.392ZM885.106 332.824H880.479V311.947C880.479 308.312 879.029 306.494 876.127 306.494C874.695 306.494 873.41 306.953 872.272 307.871C870.95 308.936 870.288 310.331 870.288 312.057V332.824H865.661V303.299H870.068V306.88C870.619 305.667 871.51 304.658 872.721 303.85C874.089 302.969 875.631 302.528 877.367 302.528C882.526 302.528 885.106 305.3 885.106 310.845V332.824ZM925.073 332.824H904.141V293.494H924.467V297.791H908.989V310.129H923.586V314.426H908.989V328.527H925.073V332.824ZM962.936 332.824H958.31V312.167C958.31 308.385 957.024 306.494 954.454 306.494C952.985 306.494 951.736 306.916 950.708 307.76C949.459 308.826 948.835 310.331 948.835 312.277V332.824H944.208V312.663C944.208 308.55 942.886 306.494 940.242 306.494C938.773 306.494 937.543 306.953 936.551 307.871C935.339 308.973 934.734 310.588 934.734 312.718V332.824H930.107V303.299H934.513V306.88C935.762 303.978 938.232 302.528 941.913 302.528C945.328 302.528 947.412 304.088 948.146 307.21H948.201C948.679 305.998 949.542 304.933 950.79 304.015C952.195 303.024 953.664 302.528 955.206 302.528C960.356 302.528 962.936 305.282 962.936 310.79V332.824ZM990.169 318.061C990.169 322.835 989.195 326.691 987.24 329.629C985.468 332.273 983.403 333.595 981.052 333.595C978.987 333.595 977.307 333.007 976.021 331.832C975.167 331.098 974.58 330.235 974.249 329.243V342.519H969.622V303.299H974.029V307.155C975.278 304.07 977.619 302.528 981.052 302.528C987.129 302.528 990.169 307.706 990.169 318.061ZM985.321 318.061C985.321 313.618 984.825 310.588 983.843 308.973C983.108 307.761 981.888 307.155 980.171 307.155C978.087 307.155 976.609 307.779 975.727 309.027C974.598 310.644 974.029 313.655 974.029 318.061C974.029 325.773 976.076 329.629 980.171 329.629C981.851 329.629 983.09 328.876 983.898 327.371C984.844 325.571 985.321 322.468 985.321 318.061ZM1000.27 332.824H995.643V293.494H1000.27V332.824ZM1026.57 318.392C1026.57 328.527 1022.98 333.595 1015.82 333.595C1008.81 333.595 1005.3 328.527 1005.3 318.392C1005.3 307.816 1008.81 302.528 1015.82 302.528C1022.98 302.528 1026.57 307.816 1026.57 318.392ZM1021.72 318.392C1021.72 313.912 1021.22 310.717 1020.23 308.807C1019.31 307.045 1017.84 306.163 1015.82 306.163C1013.95 306.163 1012.57 307.008 1011.69 308.697C1010.66 310.644 1010.15 313.875 1010.15 318.392C1010.15 326.103 1012.04 329.959 1015.82 329.959C1019.75 329.959 1021.72 326.103 1021.72 318.392ZM1050.16 303.299L1041.35 335.853C1040.65 338.424 1039.62 340.223 1038.26 341.252C1037.16 342.096 1035.64 342.519 1033.69 342.519C1032.37 342.519 1031.27 342.463 1030.39 342.353V338.718C1030.94 338.828 1031.74 338.883 1032.81 338.883C1034.5 338.883 1035.67 338.277 1036.34 337.065C1036.74 335.853 1037.16 334.641 1037.6 333.43L1028.9 303.299H1033.97L1039.81 326.985H1039.92L1045.09 303.299H1050.16ZM1073.32 318.612H1057.78C1057.78 322.725 1058.22 325.644 1059.11 327.371C1059.99 329.096 1061.4 329.959 1063.35 329.959C1065.04 329.959 1066.31 329.335 1067.18 328.087C1068.04 326.838 1068.47 325.185 1068.47 323.129H1073.1C1073.1 325.92 1072.29 328.289 1070.67 330.235C1068.8 332.475 1066.27 333.595 1063.07 333.595C1059.62 333.595 1057.07 332.383 1055.41 329.959C1053.76 327.536 1052.94 323.551 1052.94 318.006C1052.94 307.687 1056.46 302.528 1063.51 302.528C1067.15 302.528 1069.73 303.786 1071.25 306.301C1072.78 308.816 1073.46 312.92 1073.32 318.612ZM1068.47 314.977C1068.47 311.672 1068.01 309.321 1067.09 307.926C1066.28 306.751 1065.05 306.163 1063.4 306.163C1059.77 306.163 1057.95 309.101 1057.95 314.977H1068.47ZM1097.96 318.612H1082.43C1082.43 322.725 1082.87 325.644 1083.75 327.371C1084.63 329.096 1086.04 329.959 1087.99 329.959C1089.68 329.959 1090.95 329.335 1091.82 328.087C1092.68 326.838 1093.11 325.185 1093.11 323.129H1097.74C1097.74 325.92 1096.93 328.289 1095.32 330.235C1093.44 332.475 1090.91 333.595 1087.71 333.595C1084.26 333.595 1081.71 332.383 1080.06 329.959C1078.41 327.536 1077.58 323.551 1077.58 318.006C1077.58 307.687 1081.1 302.528 1088.16 302.528C1091.79 302.528 1094.37 303.786 1095.89 306.301C1097.42 308.816 1098.11 312.92 1097.96 318.612ZM1093.11 314.977C1093.11 311.672 1092.65 309.321 1091.74 307.926C1090.93 306.751 1089.7 306.163 1088.04 306.163C1084.41 306.163 1082.59 309.101 1082.59 314.977H1093.11ZM1138.64 322.082C1138.64 325.718 1137.56 328.546 1135.39 330.565C1133.23 332.585 1130.05 333.595 1125.86 333.595C1122.04 333.595 1119.2 332.558 1117.33 330.483C1115.45 328.408 1114.52 325.075 1114.52 320.485H1119.36C1119.36 323.79 1119.91 326.14 1121.02 327.536C1122.12 328.931 1123.92 329.629 1126.41 329.629C1128.21 329.629 1129.76 329.152 1131.04 328.197C1132.73 326.985 1133.58 325.149 1133.58 322.688C1133.58 320.154 1132.55 318.226 1130.49 316.905C1129.76 316.427 1127.53 315.527 1123.83 314.205C1120.92 313.177 1118.83 312.02 1117.55 310.735C1115.86 309.046 1115.01 306.732 1115.01 303.795C1115.01 300.196 1116.08 297.405 1118.21 295.422C1120.19 293.622 1122.78 292.723 1125.97 292.723C1133.69 292.723 1137.54 296.377 1137.54 303.684H1132.69C1132.69 300.857 1132.01 298.911 1130.66 297.846C1129.7 297.074 1128.2 296.689 1126.14 296.689C1124.27 296.689 1122.79 297.249 1121.7 298.369C1120.62 299.489 1120.08 301.004 1120.08 302.913C1120.08 305.08 1120.78 306.788 1122.17 308.036C1123.16 308.954 1124.84 309.799 1127.19 310.57C1128.8 311.121 1130.42 311.672 1132.03 312.222C1134.05 313.067 1135.58 314.15 1136.6 315.472C1137.96 317.162 1138.64 319.365 1138.64 322.082ZM1284.98 324.616C1284.98 327.591 1284.02 329.886 1282.11 331.502C1280.43 332.897 1278.26 333.595 1275.61 333.595C1268.75 333.595 1265.31 330.106 1265.31 323.129H1269.94C1269.94 327.682 1271.74 329.959 1275.34 329.959C1276.7 329.959 1277.82 329.61 1278.7 328.913C1279.8 328.031 1280.35 326.746 1280.35 325.057C1280.35 323.294 1279.62 321.954 1278.15 321.036C1277.38 320.522 1275.5 319.787 1272.53 318.833C1270.33 318.135 1268.73 317.254 1267.74 316.188C1266.49 314.866 1265.86 313.067 1265.86 310.79C1265.86 308.293 1266.7 306.292 1268.37 304.786C1270.04 303.281 1272.31 302.528 1275.17 302.528C1278.3 302.528 1280.59 303.271 1282.06 304.758C1283.53 306.246 1284.26 308.642 1284.26 311.947H1279.64C1279.64 309.707 1279.23 308.146 1278.42 307.265C1277.76 306.53 1276.7 306.163 1275.23 306.163C1272.07 306.163 1270.49 307.632 1270.49 310.57C1270.49 311.965 1271.01 313.03 1272.03 313.765C1272.73 314.242 1274.15 314.83 1276.28 315.527C1279.29 316.519 1281.18 317.29 1281.95 317.841C1283.97 319.273 1284.98 321.532 1284.98 324.616ZM1162.96 318.612H1147.42C1147.42 322.725 1147.86 325.644 1148.74 327.371C1149.62 329.096 1151.04 329.959 1152.99 329.959C1154.67 329.959 1155.95 329.335 1156.81 328.087C1157.68 326.838 1158.11 325.185 1158.11 323.129H1162.74C1162.74 325.92 1161.93 328.289 1160.31 330.235C1158.44 332.475 1155.9 333.595 1152.71 333.595C1149.26 333.595 1146.71 332.383 1145.05 329.959C1143.4 327.536 1142.57 323.551 1142.57 318.006C1142.57 307.687 1146.1 302.528 1153.15 302.528C1156.79 302.528 1159.37 303.786 1160.89 306.301C1162.41 308.816 1163.1 312.92 1162.96 318.612ZM1158.11 314.977C1158.11 311.672 1157.65 309.321 1156.73 307.926C1155.92 306.751 1154.69 306.163 1153.04 306.163C1149.4 306.163 1147.59 309.101 1147.59 314.977H1158.11ZM1181.37 307.375C1180.64 307.228 1179.83 307.155 1178.95 307.155C1177.37 307.155 1175.99 307.761 1174.82 308.973C1173.5 310.331 1172.84 312.131 1172.84 314.371V332.824H1168.21V303.299H1172.84V307.816H1172.89C1174.47 304.29 1176.71 302.528 1179.61 302.528C1179.91 302.528 1180.26 302.564 1180.69 302.638C1181.11 302.711 1181.34 302.748 1181.37 302.748V307.375ZM1203.48 303.299L1195.5 332.824H1190.21L1182.22 303.299H1187.29L1192.85 327.095H1192.91L1198.42 303.299H1203.48ZM1212.21 298.782H1207.58V293.494H1212.21V298.782ZM1212.21 332.824H1207.58V303.299H1212.21V332.824ZM1237.35 322.578C1237.35 326.471 1236.23 329.39 1233.99 331.337C1232.26 332.842 1230.18 333.595 1227.76 333.595C1224.6 333.595 1222.23 332.714 1220.66 330.951C1218.49 328.527 1217.41 324.249 1217.41 318.116C1217.41 307.724 1220.91 302.528 1227.93 302.528C1230.42 302.528 1232.5 303.17 1234.15 304.456C1236.28 306.145 1237.35 308.752 1237.35 312.277H1232.72C1232.72 308.201 1231.16 306.163 1228.04 306.163C1226.27 306.163 1224.93 306.88 1224.02 308.312C1222.84 310.221 1222.25 313.563 1222.25 318.337C1222.25 326.085 1224.11 329.959 1227.82 329.959C1231.08 329.959 1232.72 327.499 1232.72 322.578H1237.35ZM1261.71 318.612H1246.18C1246.18 322.725 1246.62 325.644 1247.5 327.371C1248.38 329.096 1249.8 329.959 1251.74 329.959C1253.43 329.959 1254.71 329.335 1255.57 328.087C1256.43 326.838 1256.87 325.185 1256.87 323.129H1261.49C1261.49 325.92 1260.68 328.289 1259.07 330.235C1257.2 332.475 1254.66 333.595 1251.47 333.595C1248.02 333.595 1245.46 332.383 1243.81 329.959C1242.16 327.536 1241.33 323.551 1241.33 318.006C1241.33 307.687 1244.86 302.528 1251.91 302.528C1255.54 302.528 1258.12 303.786 1259.65 306.301C1261.17 308.816 1261.86 312.92 1261.71 318.612ZM1256.87 314.977C1256.87 311.672 1256.41 309.321 1255.49 307.926C1254.68 306.751 1253.45 306.163 1251.8 306.163C1248.16 306.163 1246.34 309.101 1246.34 314.977H1256.87Z" fill="#003B8D"/>
</svg>
